PathFileType	4	(X/Y/Z)	25_coords_data.trc
DataRate	CameraRate	NumFrames	NumMarkers	Units	OrigDataRate	OrigDataStartFrame	OrigNumFrames
30.0	30.0	6	21	m	30.0	10	59
Frame#	Time	THUMB_TIP	THUMB_IP	THUMB_MCP	THUMB_CMC	INDEX_TIP	INDEX_DIP	INDEX_PIP	INDEX_MCP	MIDDLE_TIP	MIDDLE_DIP	MIDDLE_PIP	MIDDLE_MCP	RING_TIP	RING_DIP	RING_PIP	RING_MCP	PINKY_TIP	PINKY_DIP	PINKY_PIP	PINKY_MCP	WRIST
X1	Y1	Z1	X2	Y2	Z2	X3	Y3	Z3	X4	Y4	Z4	X5	Y5	Z5	X6	Y6	Z6	X7	Y7	Z7	X8	Y8	Z8	X9	Y9	Z9	X10	Y10	Z10	X11	Y11	Z11	X12	Y12	Z12	X13	Y13	Z13	X14	Y14	Z14	X15	Y15	Z15	X16	Y16	Z16	X17	Y17	Z17	X18	Y18	Z18	X19	Y19	Z19	X20	Y20	Z20	X21	Y21	Z21
9	0.3	-0.014991800308227539	-0.09315019989013672	0.9724669799804687	-0.03892580032348633	-0.09525700378417969	0.9666909790039062	-0.06318050003051758	-0.07789779663085937	0.9613060302734375	-0.07073149871826172	-0.04811899948120117	0.9646309814453125	-0.015554100036621095	-0.14709100341796874	0.8714719848632813	-0.024248199462890627	-0.13013400268554687	0.8857899780273437	-0.032626800537109375	-0.11142099761962891	0.8962789916992188	-0.04521189880371094	-0.07397650146484375	0.9138070068359375	-0.034222599029541015	-0.08280789947509766	0.9576799926757813	-0.021599899291992186	-0.09711949920654298	0.9509409790039063	-0.010702799797058106	-0.09853759765625	0.9275859985351562	-0.027651300430297853	-0.058347400665283204	0.9138779907226563	-0.024197599411010743	-0.07791549682617188	0.967041015625	-0.009596409797668458	-0.08710330200195313	0.957198974609375	0.004438000202178955	-0.08368720245361329	0.9355009765625	-0.014513999938964843	-0.04713700103759766	0.9258560180664063	0.04211830139160156	-0.08437310028076171	0.9209210205078125	0.02699799919128418	-0.07382109832763672	0.930364013671875	0.012708000183105469	-0.06377330017089844	0.9370679931640625	-0.008270620346069336	-0.04558349990844727	0.9457260131835937	-0.07614800262451171	-0.00485906982421875	0.9713070068359375
10	0.3333333333333333	-0.015451299667358398	-0.09293250274658203	0.9724199829101563	-0.03918840026855469	-0.09509519958496093	0.9666110229492187	-0.06358250045776367	-0.07722389984130859	0.9616090087890625	-0.07104920196533203	-0.04768510055541992	0.9645029907226562	-0.01561359977722168	-0.1470330047607422	0.8716939697265625	-0.02432390022277832	-0.13001699829101562	0.885958984375	-0.032738300323486326	-0.11125399780273437	0.8964089965820312	-0.045409801483154294	-0.07374150085449219	0.9139099731445313	-0.03399369812011719	-0.08240080261230469	0.9581380004882812	-0.021846000671386718	-0.09679010009765625	0.9510020141601563	-0.010931599617004394	-0.09835240173339843	0.9277169799804688	-0.027786300659179686	-0.05815909957885742	0.91381201171875	-0.025020700454711914	-0.0788407974243164	0.9689920043945313	-0.009751310348510742	-0.0867957000732422	0.9573870239257812	0.004257750034332275	-0.0834520034790039	0.9354949951171875	-0.01465250015258789	-0.04686330032348633	0.92581201171875	0.0419989013671875	-0.08417469787597656	0.920968017578125	0.026781299591064452	-0.07357340240478516	0.93043798828125	0.012439900398254395	-0.06359510040283203	0.9373209838867187	-0.00846986961364746	-0.04535329818725586	0.9457130126953125	-0.07680819702148438	-0.0043209099769592274	0.9708380126953124
11	0.36666666666666664	-0.0148951997756958	-0.09283540344238281	0.9723419799804688	-0.03871020126342774	-0.09489340209960938	0.9666699829101563	-0.06367419815063477	-0.07734690093994141	0.9613829956054688	-0.07133300018310547	-0.04778350067138672	0.964343017578125	-0.015501700401306152	-0.1468000030517578	0.87172998046875	-0.024277700424194335	-0.1297969970703125	0.8859879760742188	-0.03272060012817383	-0.11105899810791016	0.8963660278320312	-0.04545280075073242	-0.07369120025634765	0.9137249755859375	-0.033815101623535154	-0.0828946990966797	0.9577459716796874	-0.02188669967651367	-0.09654119873046875	0.9509539794921875	-0.010946800231933593	-0.098064697265625	0.927614013671875	-0.027969499588012696	-0.0580885009765625	0.9137559814453124	-0.023974700927734374	-0.07751370239257813	0.96581298828125	-0.009725370407104493	-0.08665019989013673	0.9573330078125	0.004168300151824951	-0.08311440277099609	0.9354000244140624	-0.014850600242614746	-0.046634899139404294	0.9257839965820313	0.041891498565673826	-0.08366400146484375	0.9206079711914062	0.026724300384521484	-0.07311699676513672	0.9301900024414063	0.012380299568176269	-0.06319179916381835	0.9370390014648438	-0.008703949928283692	-0.04494300079345703	0.9453579711914063	-0.07670220184326172	-0.004438539981842041	0.9712509765625
12	0.4	-0.015149499893188477	-0.09291220092773438	0.9722579956054688	-0.03922719955444336	-0.09460410308837891	0.9666480102539062	-0.0632953987121582	-0.07743560028076171	0.9619650268554687	-0.07128880310058594	-0.04784049987792969	0.964677978515625	-0.015797800064086914	-0.14658599853515625	0.8714559936523437	-0.024562200546264647	-0.1296490020751953	0.8857260131835938	-0.03297790145874024	-0.11094100189208984	0.8961300048828125	-0.04577170181274414	-0.07349220275878907	0.9136370239257813	-0.03422439956665039	-0.0825010986328125	0.957114013671875	-0.021946399688720704	-0.0966156997680664	0.9509500122070312	-0.011177800178527831	-0.09800689697265624	0.9274110107421875	-0.02826919937133789	-0.057845699310302735	0.9136190185546875	-0.024171699523925783	-0.07745390319824219	0.965510009765625	-0.009780409812927247	-0.0865000991821289	0.9569119873046875	0.003925450086593628	-0.08305789947509766	0.9354509887695313	-0.01507979965209961	-0.046514701843261716	0.9256019897460938	0.04169540023803711	-0.08361380004882812	0.9204520263671875	0.02654080009460449	-0.07310579681396484	0.9300490112304688	0.012156299591064453	-0.0630181999206543	0.9368920288085938	-0.008917059898376465	-0.044913101196289065	0.9454290161132812	-0.07631909942626953	-0.004658470153808594	0.970802978515625
13	0.43333333333333335	-0.015978899955749512	-0.09276399993896485	0.9724450073242188	-0.03986190032958985	-0.09457559967041015	0.9663419799804688	-0.06396480178833008	-0.07711109924316406	0.9612689819335938	-0.07117510223388672	-0.047919601440429685	0.964656982421875	-0.01591059970855713	-0.1465030059814453	0.8714520263671875	-0.024651599884033204	-0.1295760040283203	0.8857059936523437	-0.03311949920654297	-0.11087599945068359	0.8961170043945312	-0.04588309860229492	-0.07342400360107422	0.9134910278320313	-0.03423099899291992	-0.08244699859619141	0.956905029296875	-0.02232740020751953	-0.09641739654541015	0.9509429931640625	-0.011315600395202637	-0.09780870056152344	0.9273590087890625	-0.028381799697875975	-0.05774050140380859	0.9135599975585937	-0.02429710006713867	-0.07686499786376953	0.9654569702148438	-0.010242099761962891	-0.08639800262451172	0.9571619873046875	0.003806030035018921	-0.08281780242919921	0.93527099609375	-0.015237799644470215	-0.04642169952392578	0.925573974609375	0.04150759887695313	-0.08353959655761718	0.9204819946289062	0.026355499267578124	-0.07299009704589844	0.9300159912109375	0.01192710018157959	-0.06300839996337891	0.936885009765625	-0.009094090461730956	-0.044739700317382815	0.945447021484375	-0.07690879821777344	-0.004433640003204346	0.9710289916992187
14	0.4666666666666667	-0.015037799835205078	-0.09309649658203124	0.97189599609375	-0.0397036018371582	-0.0943855972290039	0.966155029296875	-0.06361629867553711	-0.07712670135498047	0.961083984375	-0.07152480316162109	-0.047360401153564456	0.9643099975585937	-0.015423500061035156	-0.14605799865722657	0.871218017578125	-0.024308500289916993	-0.129093994140625	0.8854329833984375	-0.032895198822021486	-0.11043299865722657	0.8958579711914062	-0.045868499755859375	-0.07315650177001953	0.913219970703125	-0.03417990112304688	-0.08161620330810547	0.95777001953125	-0.021774599075317383	-0.096314697265625	0.950614013671875	-0.011101599693298339	-0.09737870025634765	0.9269400024414063	-0.028475299835205078	-0.05730569839477539	0.9132269897460937	-0.024302999496459962	-0.07640329742431641	0.9650830078125	-0.009700180053710938	-0.08599829864501952	0.9566510009765625	0.003935580015182495	-0.08228340148925781	0.9347689819335937	-0.015319999694824218	-0.045967201232910156	0.92514697265625	0.04157199859619141	-0.0829468002319336	0.9200130004882813	0.026416799545288087	-0.07243569946289062	0.9295390014648437	0.012050700187683106	-0.06250419998168945	0.9363250122070312	-0.009156109809875489	-0.04427119827270508	0.9448289794921875	-0.07698100280761719	-0.004347650051116944	0.9712000122070312
